# xmcd
#
# Track frame offsets: 
#        150
#        13720
#        27567
#        40090
#        54195
#        66760
#        79405
#        91027
#        104480
#        115080
#        127987
#        141047
#        154560
#        167370
#        180335
#        193357
#        205072
#        216857
#        232415
#        244202
#        257577
#        271737
#        286352
#        297885
#        311552
#        324540
#
# Disc length: 4485 seconds
#
# Revision: 5
# Processed by: cddbd v1.5.2PL0 Copyright (c) Steve Scherf et al.
# Submitted via: ExactAudioCopy v1.1
#
DISCID=7111831a
DTITLE=Jimmie Rodgers - The Singing Brakeman - Disc 2
DYEAR=1992
DGENRE=Country
TTITLE0=My Carolina Sunshine Girl (mono)
TTITLE1=Blue Yodel #4 (mono)
TTITLE2=Waiting For A Train (mono)
TTITLE3=I'm Lonely And Blue (1929) (mono)
TTITLE4=Desert Blues (mono)
TTITLE5=Any Old Time (mono)
TTITLE6=Blue Yodel #5 (mono)
TTITLE7=High Powered Mama (mono)
TTITLE8=I'm Sorry We Met (mono)
TTITLE9=Everybody Does It In Hawaii (mono)
TTITLE10=Tuck Away My Lonesome Blues (mono)
TTITLE11=Train Whistle Blues (mono)
TTITLE12=Jimmie's Texas Blues (mono)
TTITLE13=Frankie And Johnny (alt - take 1) (mono)
TTITLE14=Frankie And Johnny (master - take 2) (mono)
TTITLE15=Homecall (master - take 2) (mono)
TTITLE16=Homecall (alt - take 3) (mono)
TTITLE17=Whisper My Mother's Name (mono)
TTITLE18=The Land Of My Boyhood Dreams (master - take 1) (mono)
TTITLE19=The Land Of My Boyhood Dreams (alt - take 2) (mono)
TTITLE20=Blue Yodel #6 (mono)
TTITLE21=Yodeling Cowboy (mono)
TTITLE22=My Rough And Rowdy Ways (mono)
TTITLE23=I've Ranged, I've Roamed, I've Travelled (alt - take 1) (mono
TTITLE23=)
TTITLE24=I've Ranged, I've Roamed, I've Travelled (master - take 3) (m
TTITLE24=ono)
TTITLE25=Hobo Bill's Last Ride (mono)
EXTD=Bear Family Records  BCD15540\n6 CD Boxed Set with book/discograp
EXTD=hy\n1992  Recorded Aug 1927 - May 1933\nTitles include release ye
EXTD=ar. YEAR: 1992
EXTT0=
EXTT1=
EXTT2=
EXTT3=
EXTT4=
EXTT5=
EXTT6=
EXTT7=
EXTT8=
EXTT9=
EXTT10=
EXTT11=
EXTT12=
EXTT13=
EXTT14=
EXTT15=
EXTT16=
EXTT17=
EXTT18=
EXTT19=
EXTT20=
EXTT21=
EXTT22=
EXTT23=
EXTT24=
EXTT25=
PLAYORDER=
